<svg width="133" height="108" viewBox="0 0 133 108" fill="none" xmlns="http://www.w3.org/2000/svg">
<path d="M32.76 8.9C31.3133 8.2 29.54 7.54666 27.44 6.94C25.34 6.33333 23.24 6.03 21.14 6.03C17.8733 6.03 15.26 6.84667 13.3 8.48C11.34 10.1133 10.36 12.1667 10.36 14.64C10.36 16.5067 10.92 18.07 12.04 19.33C13.16 20.5433 14.63 21.5933 16.45 22.48C18.27 23.32 20.2067 24.1367 22.26 24.93C23.8933 25.5367 25.5033 26.2133 27.09 26.96C28.7233 27.7067 30.1933 28.6167 31.5 29.69C32.8067 30.7633 33.8333 32.0933 34.58 33.68C35.3733 35.2667 35.77 37.2267 35.77 39.56C35.77 42.3133 35.1167 44.7633 33.81 46.91C32.5033 49.01 30.6833 50.6433 28.35 51.81C26.0167 52.9767 23.31 53.56 20.23 53.56C17.7567 53.56 15.4933 53.2567 13.44 52.65C11.4333 52.0433 9.66 51.3433 8.12 50.55C6.62667 49.71 5.43667 49.01 4.55 48.45L6.16 45.65C7.18667 46.3967 8.42333 47.1433 9.87 47.89C11.3633 48.6367 12.9733 49.2667 14.7 49.78C16.4267 50.2933 18.1533 50.55 19.88 50.55C21.8867 50.55 23.8233 50.1533 25.69 49.36C27.6033 48.5667 29.1667 47.3767 30.38 45.79C31.64 44.1567 32.27 42.1033 32.27 39.63C32.27 37.25 31.6867 35.3367 30.52 33.89C29.3533 32.3967 27.86 31.1833 26.04 30.25C24.22 29.3167 22.2833 28.4767 20.23 27.73C18.6433 27.1233 17.0567 26.4933 15.47 25.84C13.8833 25.14 12.4367 24.3233 11.13 23.39C9.82333 22.41 8.77333 21.2433 7.98 19.89C7.23333 18.5367 6.86 16.9033 6.86 14.99C6.86 12.61 7.46667 10.5333 8.68 8.76C9.89333 6.98667 11.5267 5.61 13.58 4.63C15.68 3.60333 18.06 3.06666 20.72 3.02C23.0533 3.02 25.41 3.32333 27.79 3.93C30.2167 4.53666 32.3167 5.30666 34.09 6.24L32.76 8.9ZM52.0838 25.7L51.9438 28.15L52.1538 27.52L76.7238 3.3H81.1338L60.5538 23.67L83.4438 53H79.1038L58.0338 25.84L52.0138 31.58L52.0838 53H48.5838V3.3H52.0838V25.7ZM107.963 35.29L89.413 3.3H93.613L110.343 32.42L109.153 32.49L125.813 3.3H129.943L111.393 35.29V53H107.963V35.29Z" fill="black"/>
<path d="M17 69.6C18.0667 69.6 19.12 69.76 20.16 70.08C21.2267 70.3733 22.1867 70.8533 23.04 71.52C23.92 72.16 24.6267 72.9867 25.16 74C25.6933 75.0133 25.96 76.2267 25.96 77.64C25.96 78.7067 25.8 79.7467 25.48 80.76C25.16 81.7467 24.64 82.64 23.92 83.44C23.2 84.24 22.2667 84.88 21.12 85.36C19.9733 85.84 18.56 86.08 16.88 86.08H12.48V98H10.52V69.6H17ZM16.76 84.2C18.1733 84.2 19.3467 84 20.28 83.6C21.2133 83.2 21.9467 82.68 22.48 82.04C23.0133 81.4 23.3867 80.7067 23.6 79.96C23.84 79.1867 23.96 78.44 23.96 77.72C23.96 76.8667 23.8 76.0667 23.48 75.32C23.1867 74.5733 22.7467 73.92 22.16 73.36C21.5733 72.7733 20.8667 72.32 20.04 72C19.2133 71.6533 18.2933 71.48 17.28 71.48H12.48V84.2H16.76ZM20.84 85.08L28.72 98H26.44L18.52 85.12L20.84 85.08Z" fill="black"/>
<path d="M58.52 69.6H76.04V71.48H60.48V82.76H74.48V84.64H60.48V96.12H76.6V98H58.52V69.6Z" fill="black"/>
<path d="M105.52 69.6H121.44V71.48H107.48V83.2H119.84V85.04H107.48V98H105.52V69.6Z" fill="black"/>
<line x1="65" y1="61.5" x2="125" y2="61.5" stroke="black"/>
<line x1="5" y1="107.5" x2="65" y2="107.5" stroke="black"/>
</svg>
